# Alias OBJ Model File
# Exported from SketchUp, (c) 2000-2012 Trimble Navigation Limited
# File units = meters

mtllib obj1.mtl

g Mesh1 Model

usemtl Herringbone
v 0 0 -1.01
vt 0 1.80744
vn 0 -1 -0
v 0.178077 0 -0.831923
vt -0.318678 1.48877
v 0 0 -0
vt 0 0
f 1/1/1 2/2/1 3/3/1

v 0.81 0 -1.01
vt -1.44953 1.80744
f 2/2/1 1/1/1 4/4/1

vt -1.44953 0
vn 0 0 -1
v 0 0.2 -1.01
vt 0 0.35791
v 0.81 0.2 -1.01
vt -1.44953 0.35791
f 4/5/2 1/3/2 5/6/2 6/7/2 

vt -1.80744 0
vn -1 0 -0
v 0 0.2 -0
vt -1.80744 0.35791
f 1/8/3 3/3/3 7/6/3 5/9/3 

vn 0 0 1
v 0.81 0 -0
vt 1.44953 0
v 0.81 0.2 -0
vt 1.44953 0.35791
f 3/3/4 8/10/4 9/11/4 7/6/4 

v 0.178077 0 -0.178077
vt -0.318678 0.318678
f 3/3/1 10/12/1 8/5/1

f 10/12/1 3/3/1 2/2/1

vt 0.318678 0
vn 1 0 -0
vt 1.48877 0
v 0.178077 0.2 -0.831923
vt 1.48877 0.35791
v 0.178077 0.2 -0.178077
vt 0.318678 0.35791
f 10/13/5 2/14/5 11/15/5 12/16/5 

v 0.631923 0 -0.831923
vt 1.13086 0
v 0.631923 0.2 -0.831923
vt 1.13086 0.35791
f 2/13/4 13/17/4 14/18/4 11/16/4 

vt -1.13086 1.48877
f 2/2/1 4/4/1 13/19/1

v 0.631923 0 -0.178077
vt -1.13086 0.318678
f 13/19/1 4/4/1 15/20/1

f 8/5/1 15/20/1 4/4/1

f 8/5/1 10/12/1 15/20/1

vt -1.13086 0
vt -0.318678 0
vt -0.318678 0.35791
v 0.631923 0.2 -0.178077
vt -1.13086 0.35791
f 15/21/2 10/22/2 12/23/2 16/24/2 

vt 0.318678 0.318678
vn 0 1 -0
vt 1.13086 0.318678
f 12/25/6 9/10/6 16/26/6

f 12/25/6 7/3/6 9/10/6

f 7/3/6 12/25/6 5/1/6

vt 0.318678 1.48877
f 11/27/6 5/1/6 12/25/6

vt 1.44953 1.80744
f 5/1/6 11/27/6 6/28/6

vt 1.13086 1.48877
f 6/28/6 11/27/6 14/29/6

f 6/28/6 14/29/6 9/10/6

f 16/26/6 9/10/6 14/29/6

vt -1.48877 0
vt -1.48877 0.35791
f 13/30/3 15/22/3 16/23/3 14/31/3 

vt 1.80744 0
vt 1.80744 0.35791
f 8/3/5 4/32/5 6/33/5 9/6/5 

